<svg width="80" height="81" viewBox="0 0 80 81" fill="none" xmlns="http://www.w3.org/2000/svg">
<path d="M5.95325 17.7683C6.24561 22.0658 7.89539 27.9026 13.6534 33.0881L28.6925 16.3901C22.9351 11.204 16.9579 10.1718 12.6537 10.3293C8.73524 10.4728 5.68775 13.8565 5.95325 17.7683Z" fill="white" stroke="#222222" stroke-width="2"/>
<path d="M13.2433 21.3563C13.4435 23.5731 14.3511 26.4942 17.2448 29.101L25.1012 20.3779C22.2069 17.7717 19.207 17.1735 16.9817 17.2053C14.7606 17.237 13.0431 19.1444 13.2433 21.3563Z" fill="white" stroke="#222222" stroke-width="2"/>
<path d="M73.9764 17.7683C73.6841 22.0658 72.0343 27.9026 66.2769 33.0881L51.2372 16.3901C56.9952 11.204 62.9718 10.1718 67.276 10.3293C71.1945 10.4728 74.242 13.8565 73.9764 17.7683Z" fill="white" stroke="#222222" stroke-width="2"/>
<path d="M66.6864 21.3563C66.4862 23.5731 65.5792 26.4942 62.6849 29.101L54.8285 20.3779C57.7228 17.7717 60.7227 17.1735 62.948 17.2053C65.1691 17.237 66.8866 19.1444 66.6864 21.3563Z" fill="white" stroke="#222222" stroke-width="2"/>
<path d="M21.7621 75.2839C18.9948 75.2839 16.7511 73.0403 16.7511 70.2729V59.9556H26.7731V70.2729C26.7731 73.0403 24.5294 75.2839 21.7621 75.2839Z" fill="white" stroke="#222222" stroke-width="2"/>
<path d="M58.1677 75.2839C55.4004 75.2839 53.1567 73.0403 53.1567 70.2729V59.9556H63.1787V70.2729C63.1787 73.0403 60.9357 75.2839 58.1677 75.2839Z" fill="white" stroke="#222222" stroke-width="2"/>
<path d="M69.8682 46.7532C69.8682 30.2383 56.4801 12.001 39.9652 12.001C23.4497 12.001 10.0616 30.2383 10.0616 46.7532C10.0616 55.1925 13.5571 61.1794 19.1797 65.0167C21.3531 66.5005 22.6715 68.9462 22.6715 71.578V74.9893C22.6715 77.7566 24.9152 80.0002 27.6825 80.0002C30.4504 80.0002 32.6935 77.7566 32.6935 74.9893V72.9641C32.6935 71.3632 34.0558 70.0936 35.6512 70.223C37.0599 70.3365 38.4998 70.3933 39.9646 70.3933C41.4294 70.3933 42.8699 70.3365 44.278 70.223C45.8734 70.0936 47.2357 71.3632 47.2357 72.9641V74.9893C47.2357 77.7566 49.4794 80.0002 52.2467 80.0002C55.014 80.0002 57.2577 77.7566 57.2577 74.9893V71.578C57.2577 68.9462 58.576 66.5005 60.7495 65.0167C66.3727 61.1794 69.8682 55.1925 69.8682 46.7532Z" fill="white" stroke="#222222" stroke-width="2"/>
<path d="M52.2711 47.953C52.2711 42.2401 46.7615 37.6094 39.9652 37.6094C33.1683 37.6094 27.6587 42.2401 27.6587 47.953C27.6587 53.6659 33.1683 58.2966 39.9652 58.2966C46.7615 58.2966 52.2711 53.6659 52.2711 47.953Z" fill="white" stroke="#222222" stroke-width="2"/>
<path d="M35.4565 52.3763C34.0149 52.3763 32.8461 51.2075 32.8461 49.7659V46.1404C32.8461 44.6987 34.0149 43.5293 35.4565 43.5293C36.8988 43.5293 38.067 44.6987 38.067 46.1404V49.7659C38.0676 51.2075 36.8988 52.3763 35.4565 52.3763Z" fill="white" stroke="#222222" stroke-width="2"/>
<path d="M44.4733 52.3763C43.031 52.3763 41.8622 51.2075 41.8622 49.7659V46.1404C41.8622 44.6987 43.031 43.5293 44.4733 43.5293C45.9149 43.5293 47.0837 44.6987 47.0837 46.1404V49.7659C47.0837 51.2075 45.9149 52.3763 44.4733 52.3763Z" fill="white" stroke="#222222" stroke-width="2"/>
<path d="M52.948 38.5028C52.2809 38.5028 51.7407 37.9626 51.7407 37.2955V35.2917C51.7407 34.6246 52.2809 34.0845 52.948 34.0845C53.6151 34.0845 54.1553 34.6246 54.1553 35.2917V37.2955C54.1553 37.9626 53.6145 38.5028 52.948 38.5028Z" fill="black"/>
<path d="M26.9818 38.5028C26.3153 38.5028 25.7745 37.9626 25.7745 37.2955V35.2917C25.7745 34.6246 26.3153 34.0845 26.9818 34.0845C27.6489 34.0845 28.1891 34.6246 28.1891 35.2917V37.2955C28.1891 37.9626 27.6489 38.5028 26.9818 38.5028Z" fill="black"/>
</svg>
