<svg width="72" height="82" viewBox="0 0 72 82" fill="none" xmlns="http://www.w3.org/2000/svg">
<path d="M16.1701 56.1685C15.7582 55.7425 15.5653 55.1498 15.6483 54.5627C15.7936 53.5361 15.0984 52.579 14.0766 52.4002C13.4931 52.2977 12.989 51.9315 12.7107 51.4078C12.2248 50.4916 11.0999 50.126 10.1686 50.5814C9.63572 50.842 9.01255 50.842 8.47971 50.5814C7.54831 50.126 6.42343 50.4916 5.93759 51.4078C5.65927 51.9315 5.15512 52.2977 4.57102 52.4002C3.5499 52.579 2.85471 53.5361 2.99997 54.5627C3.08298 55.1498 2.89072 55.7425 2.47812 56.1685C1.75729 56.9138 1.75729 58.0966 2.47812 58.8419C2.89011 59.2685 3.08298 59.8605 2.99997 60.4483C2.85471 61.4749 3.5499 62.4313 4.57102 62.6108C5.15512 62.7133 5.65927 63.0795 5.93759 63.6032C6.42343 64.5194 7.54831 64.885 8.47971 64.4296C9.01255 64.169 9.63572 64.169 10.1686 64.4296C11.0999 64.885 12.2248 64.5194 12.7107 63.6032C12.989 63.0795 13.4925 62.7133 14.0766 62.6108C15.0984 62.4313 15.7936 61.4749 15.6483 60.4483C15.5653 59.8611 15.7575 59.2685 16.1701 58.8419C16.891 58.0966 16.891 56.9138 16.1701 56.1685Z" fill="white" stroke="#222222" stroke-width="2"/>
<path d="M43.331 81.0002C45.4031 81.0002 46.6836 78.7528 45.6412 76.9621C44.8819 75.6584 43.7253 74.5432 41.9888 74.5432C47.6865 71.1247 49.6414 64.4901 49.6414 64.4901L39.194 59.7575C36.7642 55.1768 31.9473 52.0566 26.401 52.0566C18.4152 52.056 11.9283 58.5429 11.9283 66.5287C11.929 74.5207 18.4078 81.0002 26.4004 81.0002H43.331Z" fill="white" stroke="#222222" stroke-width="2"/>
<path d="M36.4439 8.61973C41.7893 21.475 43.6131 32.9392 40.5161 34.2271C37.4198 35.5149 30.5759 26.1375 25.2305 13.2834C19.885 0.428808 31.0984 -4.23489 36.4439 8.61973Z" fill="white" stroke="#222222" stroke-width="2"/>
<path d="M57.518 8.61973C52.1719 21.475 50.3488 32.9392 53.4451 34.2271C56.5421 35.5149 63.3853 26.1375 68.7314 13.2834C74.0769 0.428808 62.8635 -4.23489 57.518 8.61973Z" fill="white" stroke="#222222" stroke-width="2"/>
<path d="M46.9809 64.559C28.6411 64.559 28.2071 55.4434 28.2071 51.1026C28.2071 46.7617 26.5793 27.4453 46.9809 27.4453C67.3825 27.4453 65.7547 46.7617 65.7547 51.1026C65.7547 55.4434 65.3208 64.559 46.9809 64.559Z" fill="white" stroke="#222222" stroke-width="2"/>
<path d="M37.6022 45.1533C36.9351 45.1533 36.3949 45.6941 36.3949 46.3606V48.058C36.3949 48.7245 36.9351 49.2653 37.6022 49.2653C38.2693 49.2653 38.8095 48.7245 38.8095 48.058V46.3606C38.8095 45.6941 38.2693 45.1533 37.6022 45.1533Z" fill="black"/>
<path d="M56.359 45.1533C55.6924 45.1533 55.1517 45.6941 55.1517 46.3606V48.058C55.1517 48.7245 55.6924 49.2653 56.359 49.2653C57.0261 49.2653 57.5662 48.7245 57.5662 48.058V46.3606C57.5662 45.6941 57.0261 45.1533 56.359 45.1533Z" fill="black"/>
<path d="M44.7524 48.6376C45.4299 48.9293 46.1849 49.0923 46.9808 49.0923C47.7767 49.0923 48.5317 48.9293 49.2092 48.6376C49.9203 48.3312 49.703 47.271 48.9291 47.271H45.0326C44.258 47.271 44.0413 48.3312 44.7524 48.6376Z" fill="black"/>
<path d="M51.9255 50.334C51.4231 49.8952 50.6608 49.9464 50.222 50.4488C49.9418 50.7698 49.5164 50.9535 49.0562 50.9535C48.596 50.9535 48.1706 50.7692 47.8898 50.4481C47.6646 50.19 47.3228 50.0368 46.981 50.0368C46.6368 50.0368 46.2986 50.1894 46.0716 50.4488C45.7914 50.7698 45.366 50.9535 44.9058 50.9535C44.4456 50.9535 44.0202 50.7692 43.7394 50.4481C43.3006 49.9464 42.5376 49.8952 42.0359 50.334C41.5342 50.7728 41.4823 51.5358 41.9218 52.0375C42.6609 52.8834 43.7486 53.3687 44.9058 53.3687C45.6516 53.3687 46.3676 53.166 46.981 52.7962C47.5944 53.166 48.3103 53.3687 49.0562 53.3687C50.2134 53.3687 51.3011 52.8834 52.0402 52.0375C52.479 51.5352 52.4278 50.7722 51.9255 50.334Z" fill="black"/>
<path d="M36.3694 81.0002C36.4842 80.4173 36.3856 79.8059 36.0747 79.2721L36.0746 79.2721C35.2551 77.8652 34.124 76.9566 32.6013 76.9566C32.5432 76.9566 32.4872 76.9319 32.4475 76.8882C32.4094 76.8462 32.3897 76.7885 32.3954 76.7289L32.3963 76.7196L32.3971 76.7103C32.3969 76.7122 32.3988 76.6898 32.4011 76.6563C32.4034 76.6231 32.4062 76.5776 32.4089 76.5209C32.4144 76.4076 32.4196 76.2495 32.4198 76.0562C32.4201 75.6712 32.4004 75.1393 32.3203 74.5401C32.1641 73.372 31.7596 71.8043 30.6811 70.6209L30.6811 70.6209C29.6144 69.4507 28.1563 68.9414 26.4001 68.9414C26.2856 68.9414 26.1929 68.8486 26.1929 68.7341C26.1929 68.6199 26.2859 68.5269 26.4001 68.5269C28.4144 68.5269 29.9218 69.1671 30.9957 70.3513L30.9959 70.3515C32.4565 71.9614 32.7894 74.2838 32.8304 75.7236L32.8518 76.4769L33.5818 76.6639C34.4495 76.8862 35.5143 77.4863 36.433 79.0637C36.7862 79.6707 36.9049 80.3481 36.7936 81.0002H36.3694Z" fill="#8895A2" stroke="#222222" stroke-width="2"/>
</svg>
