<svg width="68" height="82" viewBox="0 0 68 82" fill="none" xmlns="http://www.w3.org/2000/svg">
<path d="M7.38751 58.8396C6.26532 58.8396 5.1322 58.501 4.15032 57.7971C1.65314 56.0066 1.08001 52.5309 2.87048 50.0335C4.8947 47.2101 8.14423 44.5102 11.7858 42.6263C16.6253 40.1224 22.1883 39.0035 27.873 39.3916C30.9386 39.6009 33.2544 42.2555 33.0453 45.3212C32.8361 48.3868 30.1799 50.7001 27.1158 50.4935C18.9088 49.9346 13.5833 54.189 11.9139 56.5173C10.8277 58.0327 9.12032 58.8396 7.38751 58.8396Z" fill="white" stroke="#222222" stroke-width="2"/>
<path d="M19.6956 80.9999C19.5849 80.9999 19.4736 80.9965 19.3616 80.99C16.2942 80.8083 13.9549 78.1744 14.1364 75.1069C14.5344 68.3902 17.3389 60.9085 21.4556 55.5821C23.3349 53.1507 26.8288 52.7033 29.2602 54.5821C31.6916 56.461 32.1392 59.9554 30.2602 62.3866C27.5245 65.9263 25.5089 71.3025 25.2447 75.7649C25.0697 78.7202 22.6178 80.9999 19.6956 80.9999Z" fill="white" stroke="#222222" stroke-width="2"/>
<path d="M60.6128 58.8395C58.88 58.8395 57.173 58.0328 56.0862 56.5172C54.4172 54.1887 49.0939 49.9337 40.8844 50.4934C37.8189 50.7009 35.1639 48.3867 34.9548 45.3211C34.7458 42.2555 37.0615 39.6008 40.1272 39.3915C45.8117 39.0037 51.375 40.1223 56.2144 42.6262C59.8559 44.5101 63.1055 47.21 65.1297 50.0334C66.9201 52.5308 66.347 56.0066 63.8498 57.797C62.8683 58.5009 61.735 58.8395 60.6128 58.8395Z" fill="white" stroke="#222222" stroke-width="2"/>
<path d="M48.3046 80.9997C45.3822 80.9997 42.9306 78.7202 42.7556 75.7647C42.4913 71.3023 40.4758 65.9261 37.7402 62.3864C35.861 59.9551 36.3088 56.4608 38.7402 54.5819C41.1716 52.7025 44.6655 53.1505 46.5447 55.5819C50.6614 60.9084 53.4661 68.3902 53.8639 75.1067C54.0455 78.1741 51.7061 80.808 48.6388 80.9899C48.5267 80.9963 48.4153 80.9997 48.3046 80.9997Z" fill="white" stroke="#222222" stroke-width="2"/>
<path d="M34.0002 69.9532C44.1925 69.9532 52.4549 62.0461 52.4549 52.2923C52.4549 42.5384 44.1925 34.6313 34.0002 34.6313C23.808 34.6313 15.5455 42.5384 15.5455 52.2923C15.5455 62.0461 23.808 69.9532 34.0002 69.9532Z" fill="white" stroke="#222222" stroke-width="2"/>
<path d="M34.0001 49.8613C28.1478 49.8613 23.4036 54.9993 23.4036 61.3371C23.4036 63.7616 24.0997 66.0091 25.2847 67.8621C27.8804 69.1954 30.8478 69.9524 34 69.9524C37.1522 69.9524 40.1195 69.1954 42.7153 67.8621C43.9003 66.0091 44.5964 63.7616 44.5964 61.3371C44.5967 54.9991 39.8523 49.8613 34.0001 49.8613Z" fill="white" stroke="#222222" stroke-width="2"/>
<path d="M13.3127 22.0875C19.1358 22.0875 23.8564 17.3669 23.8564 11.5438C23.8564 5.7206 19.1358 1 13.3127 1C7.48952 1 2.76892 5.7206 2.76892 11.5438C2.76892 17.3669 7.48952 22.0875 13.3127 22.0875Z" fill="white" stroke="#222222" stroke-width="2"/>
<path d="M13.3127 17.2754C16.4782 17.2754 19.0444 14.7093 19.0444 11.5437C19.0444 8.37819 16.4782 5.81201 13.3127 5.81201C10.1471 5.81201 7.58093 8.37819 7.58093 11.5437C7.58093 14.7093 10.1471 17.2754 13.3127 17.2754Z" fill="white"/>
<path d="M54.6878 22.0875C60.5109 22.0875 65.2315 17.3669 65.2315 11.5438C65.2315 5.7206 60.5109 1 54.6878 1C48.8646 1 44.144 5.7206 44.144 11.5438C44.144 17.3669 48.8646 22.0875 54.6878 22.0875Z" fill="white" stroke="#222222" stroke-width="2"/>
<path d="M54.6877 17.2754C57.8532 17.2754 60.4194 14.7093 60.4194 11.5437C60.4194 8.37819 57.8532 5.81201 54.6877 5.81201C51.5221 5.81201 48.9559 8.37819 48.9559 11.5437C48.9559 14.7093 51.5221 17.2754 54.6877 17.2754Z" fill="white"/>
<path d="M34.0001 46.5579C47.2291 46.5579 57.9532 36.5934 57.9532 24.3017C57.9532 12.0099 47.2291 2.04541 34.0001 2.04541C20.7712 2.04541 10.047 12.0099 10.047 24.3017C10.047 36.5934 20.7712 46.5579 34.0001 46.5579Z" fill="white" stroke="#222222" stroke-width="2"/>
<path d="M42.7441 22.9522L37.1124 17.8788C35.3435 16.2852 32.6567 16.2852 30.8878 17.8788L25.2561 22.9522C22.5756 25.3669 22.8041 29.6383 25.7267 31.7535C30.6636 35.3261 37.3363 35.3261 42.2731 31.7535C45.1961 29.6383 45.4245 25.3669 42.7441 22.9522Z" fill="white" stroke="#222222" stroke-width="2"/>
<path d="M22.5243 19.1597C21.8769 19.1597 21.3524 18.6352 21.3524 17.9879V16.165C21.3524 15.5177 21.8769 14.9932 22.5243 14.9932C23.1716 14.9932 23.6962 15.5177 23.6962 16.165V17.9879C23.6962 18.635 23.1716 19.1597 22.5243 19.1597Z" fill="black"/>
<path d="M45.476 19.1597C44.8286 19.1597 44.3041 18.6352 44.3041 17.9879V16.165C44.3041 15.5177 44.8286 14.9932 45.476 14.9932C46.1233 14.9932 46.6478 15.5177 46.6478 16.165V17.9879C46.6478 18.635 46.1233 19.1597 45.476 19.1597Z" fill="black"/>
<path d="M34.0002 32.2497C32.6409 32.2497 31.3479 31.6609 30.4532 30.6342C30.0279 30.1464 30.0787 29.4062 30.5666 28.9809C31.0544 28.5555 31.7948 28.6065 32.2199 29.0944C32.6696 29.6101 33.3185 29.9059 34.0004 29.9059C34.6821 29.9059 35.3312 29.6101 35.7809 29.0944C36.206 28.6064 36.9463 28.5556 37.4341 28.9809C37.9221 29.4062 37.9727 30.1464 37.5476 30.6342C36.6526 31.6609 35.3596 32.2497 34.0002 32.2497Z" fill="black"/>
<path d="M36.4536 21.7274C34.845 21.3063 33.1552 21.3063 31.5467 21.7274C30.8806 21.9018 30.3002 22.3117 29.913 22.881C29.3902 23.6501 29.6906 24.7048 30.5403 25.0826L32.8974 26.1307C33.5994 26.4429 34.4008 26.4429 35.1028 26.1307L37.4599 25.0826C38.3095 24.7048 38.6102 23.6499 38.0872 22.881C37.7002 22.3118 37.1199 21.902 36.4536 21.7274Z" fill="black"/>
</svg>
