<svg width="83" height="82" viewBox="0 0 83 82" fill="none" xmlns="http://www.w3.org/2000/svg">
<path d="M52.1303 23.298C51.7318 23.298 51.3412 23.1002 51.1111 22.7389C50.7528 22.1762 50.9188 21.4297 51.4815 21.072C60.2639 15.483 57.9672 5.29191 57.9427 5.18998C57.7889 4.54056 58.1906 3.89053 58.8394 3.73672C59.4882 3.58352 60.1388 3.98453 60.292 4.63333C60.3213 4.75541 60.9951 7.67168 60.4196 11.3924C59.6505 16.3656 57.0083 20.4171 52.7773 23.1094C52.5765 23.237 52.3525 23.298 52.1303 23.298Z" fill="black"/>
<path d="M60.0625 31.2321C59.841 31.2321 59.617 31.1711 59.4156 31.0435C58.8534 30.6852 58.6874 29.9394 59.0451 29.3766C61.7374 25.1463 65.7889 22.5034 70.7621 21.7344C74.4822 21.1594 77.3985 21.8332 77.5212 21.8619C78.17 22.0157 78.571 22.6664 78.4172 23.3152C78.264 23.9628 77.6139 24.3644 76.967 24.2118C76.9358 24.2051 74.3137 23.6112 71.0459 24.1343C66.7594 24.8197 63.4073 27.0194 61.0825 30.673C60.8523 31.0344 60.4617 31.2321 60.0625 31.2321Z" fill="black"/>
<path d="M40.1195 46.3311L44.7063 45.5083C48.3324 49.1344 53.5675 50.1897 58.5309 49.9145C63.0609 49.6642 67.8797 48.189 72.2547 50.0725C75.6879 51.5514 79.2823 55.5474 77.5428 59.5013C76.4491 61.9867 74.4025 63.4277 71.9239 64.1461L65.4145 61.5802L53.7603 58.3703L42.885 50.7708L40.1195 46.3311Z" fill="#F8D070" stroke="#222222" stroke-width="2"/>
<path d="M49.5916 58.742C46.3439 56.4404 43.4276 53.6571 40.8019 50.6908L40.1195 46.3311C40.1195 46.3311 44.3249 51.17 52.9522 54.2895C52.304 55.4229 51.2585 56.9372 49.5916 58.742Z" fill="#F75747" stroke="#222222" stroke-width="2"/>
<path d="M71.9236 64.1462C68.3879 65.1722 63.9756 64.7303 60.2024 63.7604C62.6084 61.225 64.2039 59.0534 65.2531 57.3486C69.7795 58.905 71.5281 61.4319 71.9236 64.1462Z" fill="#F75747" stroke="#222222" stroke-width="2"/>
<path d="M60.2023 63.7605C58.157 63.2355 56.3009 62.5562 54.8727 61.8708C53.0221 60.9827 51.2631 59.9268 49.5913 58.7421C51.2588 56.9373 52.3037 55.423 52.9519 54.2896C55.2682 55.127 57.9049 55.8399 60.8639 56.3031C62.5565 56.5674 64.0097 56.922 65.2536 57.3493C64.2038 59.0534 62.6089 61.225 60.2023 63.7605Z" fill="#76E5E6" stroke="#222222" stroke-width="2"/>
<path d="M32.9087 53.209L36.9181 54.3192C38.4355 58.6381 42.241 61.5086 46.342 63.2048C50.0847 64.7533 54.5317 65.4271 57.3253 68.6327C59.5171 71.1486 60.8666 75.7531 57.9394 78.2635C56.0991 79.8406 53.8958 80.2105 51.6234 79.8309L47.3759 75.252L39.2369 68.167L33.4196 57.8507L32.9087 53.209Z" fill="#F8D070" stroke="#222222" stroke-width="2"/>
<path d="M24.3037 48.7347L28.9449 49.2455L27.8352 45.2367C25.9816 44.5855 24.3959 43.5118 23.0543 42.1758C21.7525 43.3446 20.4439 44.5604 19.1353 45.8208L24.3037 48.7347Z" fill="#FFB25A"/>
<path d="M35.7383 66.8565C34.0141 63.7498 32.7415 60.3831 31.774 56.9816L32.9093 53.209C32.9093 53.209 34.4248 58.7284 40.1628 64.5707C39.2027 65.2324 37.7769 66.0478 35.7383 66.8565Z" fill="#F75747" stroke="#222222" stroke-width="2"/>
<path d="M51.6231 79.8321C48.3815 79.2925 45.0014 77.232 42.339 74.9944C45.2547 73.8836 47.3775 72.7513 48.8802 71.7852C51.9216 74.7857 52.3537 77.4944 51.6231 79.8321Z" fill="#F75747" stroke="#222222" stroke-width="2"/>
<path d="M42.3393 74.9938C40.8964 73.781 39.6647 72.5176 38.7803 71.4141C37.6334 69.9846 36.6257 68.4557 35.7383 66.8566C37.7769 66.0479 39.2027 65.2324 40.1628 64.5708C41.7033 66.1394 43.5496 67.7318 45.7524 69.2473C47.0122 70.1134 48.0449 70.9606 48.8805 71.7846C47.3778 72.7514 45.2549 73.883 42.3393 74.9938Z" fill="#76E5E6" stroke="#222222" stroke-width="2"/>
<path d="M35.8235 42.0358L36.6456 37.4483C33.0195 33.8222 31.9648 28.5878 32.2401 23.6238C32.4897 19.0937 33.9649 14.2756 32.0814 9.89996C30.6031 6.46732 26.6065 2.87294 22.6532 4.61184C20.1679 5.70621 18.7268 7.75212 18.0084 10.2308L20.5737 16.7402L23.7842 28.3943L31.3837 39.2696L35.8235 42.0358Z" fill="#F8D070" stroke="#222222" stroke-width="2"/>
<path d="M23.412 32.5637C25.7136 35.8108 28.4969 38.7271 31.4638 41.3535L35.8236 42.0358C35.8236 42.0358 30.984 37.8299 27.8645 29.2031C26.7317 29.8513 25.2168 30.8962 23.412 32.5637Z" fill="#F75747" stroke="#222222" stroke-width="2"/>
<path d="M18.0085 10.2314C16.9818 13.7666 17.4244 18.1789 18.3936 21.9527C20.929 19.5461 23.1013 17.9506 24.8054 16.9014C23.2496 12.3756 20.7227 10.6263 18.0085 10.2314Z" fill="#F75747" stroke="#222222" stroke-width="2"/>
<path d="M18.3937 21.9527C18.9192 23.9974 19.5979 25.8541 20.2839 27.2817C21.1714 29.1329 22.2273 30.8919 23.412 32.5637C25.2168 30.8962 26.7311 29.8513 27.8645 29.2025C27.0271 26.8868 26.3142 24.25 25.8516 21.291C25.5873 19.5985 25.2321 18.1453 24.8055 16.9014C23.1007 17.9506 20.9291 19.546 18.3937 21.9527Z" fill="#76E5E6" stroke="#222222" stroke-width="2"/>
<path d="M28.945 49.2455L27.8354 45.2367C23.5159 43.7187 20.6454 39.9138 18.9499 35.8128C17.4008 32.0701 16.727 27.6231 13.5214 24.8295C11.0055 22.6371 6.40097 21.2882 3.89119 24.2148C2.31342 26.0551 1.94416 28.2584 2.32319 30.5308L6.90207 34.7789L13.9871 42.9179L24.3039 48.7346L28.945 49.2455Z" fill="#F8D070" stroke="#222222" stroke-width="2"/>
<path d="M15.298 46.4166C18.4047 48.1409 21.7708 49.4129 25.1729 50.3803L28.9449 49.2456C28.9449 49.2456 23.4261 47.7301 17.5831 41.9922C16.9215 42.9517 16.1067 44.3775 15.298 46.4166Z" fill="#F75747" stroke="#222222" stroke-width="2"/>
<path d="M2.323 30.5318C2.86255 33.7734 4.9225 37.1535 7.16067 39.8159C8.27152 36.8996 9.40312 34.7768 10.3693 33.2741C7.36941 30.2327 4.66005 29.8012 2.323 30.5318Z" fill="#F75747" stroke="#222222" stroke-width="2"/>
<path d="M7.16052 39.8157C8.3733 41.2586 9.63673 42.4903 10.7403 43.3747C12.1691 44.5209 13.6986 45.5286 15.2978 46.4167C16.1065 44.3775 16.9213 42.9517 17.5829 41.9922C16.0149 40.4517 14.4225 38.6048 12.907 36.4026C12.0403 35.1422 11.1931 34.1101 10.3698 33.2739C9.40297 34.7766 8.27137 36.8994 7.16052 39.8157Z" fill="#76E5E6" stroke="#222222" stroke-width="2"/>
<path d="M49.4349 32.7185C46.5608 29.8443 33.5492 38.1952 20.3729 51.3716C7.19712 64.5473 -1.15437 77.5589 1.7204 80.4336C4.59457 83.3078 17.6061 74.9569 30.7825 61.7806C43.9582 48.6048 52.3097 35.5933 49.4349 32.7185Z" fill="#817CD0" stroke="#222222" stroke-width="2"/>
<path d="M60.3542 21.7996C55.4097 16.8545 47.3921 16.8545 42.4476 21.7996C37.5025 26.7441 37.5025 34.7618 42.4476 39.7062C47.3921 44.6513 55.4097 44.6513 60.3542 39.7062C65.2993 34.7618 65.2993 26.7441 60.3542 21.7996Z" fill="#F8D070" stroke="#222222" stroke-width="2"/>
<path d="M45.9773 26.9745C45.6685 26.9745 45.359 26.8567 45.1234 26.6211C44.6522 26.1499 44.6522 25.3851 45.1234 24.9139L46.0652 23.9716C46.537 23.5004 47.3018 23.5004 47.7724 23.9716C48.2442 24.4434 48.2442 25.2075 47.773 25.6793L46.8306 26.6211C46.595 26.8567 46.2861 26.9745 45.9773 26.9745Z" fill="black"/>
<path d="M56.3865 37.3846C56.0776 37.3846 55.7688 37.2668 55.5332 37.0312C55.0614 36.5594 55.0614 35.7953 55.5332 35.3235L56.475 34.3817C56.9468 33.9099 57.7109 33.9099 58.1821 34.3817C58.6539 34.8529 58.6539 35.6177 58.1821 36.0888L57.2403 37.0312C57.0047 37.2668 56.6959 37.3846 56.3865 37.3846Z" fill="black"/>
<path d="M52.3799 33.4037C51.4357 33.4037 50.5159 33.0192 49.8256 32.3289C49.0785 31.5818 48.6891 30.5656 48.7581 29.5414C48.8032 28.8761 49.3825 28.3738 50.0435 28.4177C50.7088 28.4623 51.2117 29.0378 51.1671 29.7031C51.1452 30.0321 51.2782 30.3672 51.5327 30.6217C51.7866 30.8762 52.1205 31.0087 52.4507 30.9867C53.1148 30.9409 53.6916 31.4451 53.7361 32.1104C53.7813 32.7756 53.2777 33.3512 52.6131 33.3958C52.5356 33.4013 52.4574 33.4037 52.3799 33.4037Z" fill="black"/>
<path d="M61.8835 2.14579C60.3558 0.61807 57.879 0.61807 56.3512 2.14579C54.8235 3.67351 54.8235 6.15033 56.3512 7.67805C57.879 9.20577 60.3558 9.20577 61.8835 7.67805C63.4112 6.15033 63.4112 3.67351 61.8835 2.14579Z" fill="#F8D070" stroke="#222222" stroke-width="2"/>
<path d="M80.0084 20.2718C78.4806 18.744 76.0038 18.744 74.4761 20.2718C72.9484 21.7989 72.9484 24.2757 74.4761 25.8034C76.0038 27.3311 78.4806 27.3311 80.0084 25.8034C81.5361 24.2757 81.5361 21.7989 80.0084 20.2718Z" fill="#F8D070" stroke="#222222" stroke-width="2"/>
</svg>
